<svg version="1.1" xmlns="http://www.w3.org/2000/svg" xmlns:xlink="http://www.w3.org/1999/xlink" width="550" height="940"><g fill="none" fill-rule="nonzero" stroke="none" stroke-width="1" stroke-linecap="butt" stroke-linejoin="miter" stroke-miterlimit="10" stroke-dasharray="" stroke-dashoffset="0" font-family="none" font-weight="none" font-size="none" text-anchor="none" style="mix-blend-mode: normal"><g><g><path d="M129.8074,191.1094c0.1849,-0.1849 3.698,-0.27735 10.53929,-0.27735l10.40062,0.13867l17.19569,44.79199c11.46379,30.04622 17.19569,45.11556 17.19569,45.20801c0,0.1849 -3.83667,0.27735 -11.51002,0.27735h-11.64869l-4.85362,-12.75809c-10.81664,-28.28968 -16.36364,-42.57319 -16.64099,-42.85054c-0.09245,-0.09245 -0.69337,1.15562 -1.80277,3.74422c-1.1094,2.5886 -2.19569,5.24653 -3.25886,7.97381c-1.06317,2.72727 -1.59476,4.22958 -1.59476,4.50693c0,0.09245 1.34052,0.13867 4.02157,0.13867h4.02157l4.85362,12.75809c3.05085,8.13559 4.57627,12.48074 4.57627,13.03544c0,0.09245 -0.30046,0.04622 -0.90139,-0.13867c-0.60092,-0.1849 -1.31741,-0.46225 -2.14946,-0.83205c-2.12635,-0.9245 -4.94607,-1.38675 -8.45917,-1.38675c-1.6641,0 -3.1433,0.13867 -4.4376,0.41602c-3.23575,0.64715 -6.24037,2.05701 -9.01387,4.22958c-2.7735,2.17257 -4.89985,4.78428 -6.37904,7.83513l-1.52542,3.46687h-11.78737c-7.76579,0 -11.64869,-0.04622 -11.64869,-0.13867c0.83205,-2.2188 1.75655,-4.6225 2.7735,-7.21109c1.2943,-3.5131 7.07242,-18.48998 17.33436,-44.93066z" fill="#ffffff"></path><g><path d="M271.53313,248.38213c0.83205,-1.01695 1.4792,-1.52542 1.94145,-1.52542c2.4037,2.4037 4.9923,5.03852 7.76579,7.90447l7.48844,7.76579l-3.46687,3.3282c-6.00924,5.63945 -11.87982,9.66102 -17.61171,12.06471c-5.7319,2.4037 -12.29584,3.60555 -19.69183,3.60555h-2.7735c-7.85824,-0.27735 -14.69954,-1.89522 -20.52388,-4.85362c-2.7735,-1.38675 -4.16025,-2.31125 -4.16025,-2.7735c0,-0.3698 0.9245,-1.38675 2.7735,-3.05085c3.60555,-3.23575 6.74884,-7.11864 9.42989,-11.64869c0.83205,-1.57165 1.38675,-2.35747 1.6641,-2.35747c0.1849,0 0.83205,0.27735 1.94145,0.83205c3.3282,1.57165 7.30354,2.35747 11.92604,2.35747c2.49615,0 4.71495,-0.27735 6.65639,-0.83205c5.547,-1.4792 11.09399,-5.08475 16.64099,-10.81664" fill="#ffffff"></path><path d="M240.60863,187.08783c0.3698,-0.09245 2.68105,-0.13867 6.93374,-0.13867h0.69337c10.44684,0 20.20031,3.05085 29.2604,9.15254c1.38675,0.9245 3.60555,2.86595 6.65639,5.82435c3.05085,2.9584 4.57627,4.6225 4.57627,4.9923c0,0.1849 -2.0339,2.24191 -6.10169,6.17103c-4.0678,3.92912 -6.79507,6.49461 -8.18182,7.69646l-1.38675,1.1094l-1.94145,-2.2188c-4.53005,-4.6225 -9.56857,-7.90447 -15.11556,-9.84592c-1.6641,-0.64715 -4.8074,-0.97072 -9.42989,-0.97072c-2.4037,0 -4.02157,0.09245 -4.85362,0.27735c-3.97535,0.64715 -7.85824,2.72727 -11.64869,6.24037c-2.7735,2.5886 -4.76117,5.1772 -5.96302,7.76579c-1.20185,2.5886 -1.849,5.7319 -1.94145,9.42989v1.94145c0,6.93374 2.0339,12.66564 6.10169,17.19569l1.94145,2.2188l-1.1094,2.2188c-1.4792,2.68105 -3.55932,5.47766 -6.24037,8.38983c-2.68105,2.91217 -5.08475,5.01541 -7.21109,6.30971l-3.46687,-3.60555c-5.45455,-5.7319 -9.24499,-12.71186 -11.37134,-20.93991c-0.5547,-2.12635 -0.83205,-6.19414 -0.83205,-12.20339c0,-5.63945 0.3698,-9.89214 1.1094,-12.75809c1.20185,-3.698 2.12635,-6.24037 2.7735,-7.62712c3.23575,-7.02619 8.11248,-12.89676 14.6302,-17.61171c6.51772,-4.71495 13.8906,-7.71957 22.11864,-9.01387z" fill="#ffffff"></path></g><path d="M341.70262,224.94607c1.38675,-0.27735 2.81972,-0.41602 4.29892,-0.41602h1.80277v20.38521l-3.46687,0.5547c-7.11864,1.1094 -12.57319,4.57627 -16.36364,10.40062c-1.1094,1.849 -1.6641,2.81972 -1.6641,2.91217c0,0.1849 4.94607,0.27735 14.83821,0.27735h14.69954v21.91063h-52.69646v-7.48844c0,-7.39599 0.7396,-13.42835 2.2188,-18.09707c1.4792,-4.66872 3.97535,-9.22188 7.48844,-13.65948c7.48844,-9.42989 17.10324,-15.02311 28.84438,-16.77966M303.151,218.151v-27.73498h52.69646v21.91063h-30.3698v12.06471l-3.8829,2.2188c-6.84129,3.97535 -12.24961,9.33744 -16.22496,16.08629l-2.08012,3.3282c-0.09245,0 -0.13867,-9.29122 -0.13867,-27.87365z" fill="#ffffff"></path><g><path d="M431.97997,192.91217c0.1849,-0.1849 4.0678,-0.27735 11.64869,-0.27735h11.37134l-1.52542,4.57627c-17.65794,49.18336 -26.62558,73.77504 -26.90293,73.77504l-0.97072,-2.2188c-0.09245,-0.27735 -0.39291,-1.15562 -0.90139,-2.63482c-0.50847,-1.4792 -1.22496,-3.48998 -2.14946,-6.03236c-0.9245,-2.54237 -1.75655,-4.87673 -2.49615,-7.00308l-4.85362,-13.86749l8.32049,-22.88136c1.2943,-3.5131 2.65794,-7.28043 4.09091,-11.302c1.43297,-4.02157 2.51926,-7.02619 3.25886,-9.01387c0.7396,-1.98767 1.1094,-3.02773 1.1094,-3.12018" fill="#ffffff"></path><path d="M374.29122,203.45146c-2.4037,-6.84129 -3.60555,-10.35439 -3.60555,-10.53929c0,-0.1849 3.83667,-0.27735 11.51002,-0.27735h11.51002l6.37904,18.02773c1.94145,5.7319 5.59322,16.1094 10.95532,31.13251c5.3621,15.02311 8.92142,25.12327 10.67797,30.30046l2.35747,6.51772c-0.09245,0.46225 -0.32357,1.20185 -0.69337,2.2188c-0.3698,1.01695 -0.60092,1.75655 -0.69337,2.2188h-20.24653l-1.38675,-4.02157c-0.3698,-1.20185 -2.31125,-6.74884 -5.82435,-16.64099c-3.5131,-9.89214 -7.46533,-20.98613 -11.8567,-33.28197c-4.39137,-12.29584 -7.41911,-20.84746 -9.0832,-25.65485z" fill="#ffffff"></path></g></g></g></g></svg>